<?xml version="1.0" standalone="no"?>
<!DOCTYPE svg PUBLIC "-//W3C//DTD SVG 20010904//EN"
 "http://www.w3.org/TR/2001/REC-SVG-20010904/DTD/svg10.dtd">
<svg version="1.0" xmlns="http://www.w3.org/2000/svg"
 width="84.000000pt" height="100.000000pt" viewBox="0 0 84.000000 100.000000"
 preserveAspectRatio="xMidYMid meet">

<g transform="translate(0.000000,100.000000) scale(0.100000,-0.100000)"
fill="#000000" stroke="none">
<path d="M371 922 c-60 -32 -86 -110 -61 -178 6 -15 24 -42 40 -61 23 -26 30
-44 30 -75 l0 -41 -86 7 -86 7 -31 -34 c-18 -18 -53 -75 -80 -126 -37 -73 -47
-102 -47 -141 0 -51 17 -80 48 -80 9 0 67 -4 127 -10 61 -5 174 -10 253 -12
178 -3 175 -5 197 137 19 125 19 139 -1 181 -18 37 -23 39 -107 49 l-58 7 7
56 c10 81 22 88 144 84 l100 -3 0 -280 0 -279 -280 0 -280 0 0 25 c0 16 -6 25
-15 25 -10 0 -15 -11 -15 -35 l0 -35 305 0 305 0 0 301 0 300 -105 -3 c-90 -3
-104 -1 -99 12 26 63 25 97 -3 153 -31 63 -132 87 -202 49z m-51 -389 c13 -13
13 -16 -4 -29 -44 -32 -145 -4 -116 31 22 27 92 25 120 -2z m80 -79 c0 -36 41
-52 75 -30 14 9 25 25 25 35 0 27 10 32 40 16 52 -27 43 -86 -17 -111 -46 -20
-130 -15 -167 9 -35 24 -35 68 0 96 31 24 44 20 44 -15z m-142 -36 c18 -18 14
-46 -7 -58 -29 -15 -93 -12 -119 6 -26 18 -27 27 -6 48 19 19 114 22 132 4z"/>
<path d="M170 640 c0 -58 3 -68 15 -64 11 5 15 21 15 60 l0 54 60 0 c33 0 60
4 60 10 0 6 -32 10 -75 10 l-75 0 0 -70z"/>
</g>
</svg>
